<svg xmlns="http://www.w3.org/2000/svg" viewBox="0 0 512 512"><defs><style>.cls-1{fill:#fefefe;}</style></defs><g id="Layer_2" data-name="Layer 2"><g id="Layer_1-2" data-name="Layer 1"><path class="cls-1" d="M.1,262Q.1,133.37,0,4.73C0,1.22.44,0,4.47,0Q256,.2,507.53,0c4,0,4.46,1.22,4.45,4.73q-.15,128.64-.08,257.28c-2.31-.14-2.24-2.16-2.74-3.62-5-14.48-15.42-21.85-31-21.86H64.86c-13.28,0-13.3,0-13.3-13.39q0-80.2,0-160.42a66.42,66.42,0,0,1,.24-8c1.72-14.36,12.07-23.89,26.57-24.1s29-.18,43.48,0c11.17.14,20.09,6.85,23.31,17.13,1.9,6.08,1,8-4.92,10.33a51.46,51.46,0,0,0-26.3,22,36,36,0,0,0-5.39,19c0,8.66,0,17.32,0,26s3.38,12.1,12.07,12.37,17.65.07,26.48.08c13.16,0,26.32.07,39.48,0,11.07-.08,14.82-3.72,14.83-14.75,0-9,.47-18-.73-26.94-2.39-17.88-12.62-29.76-28.47-37-5-2.27-7.36-4.9-8.23-10.41-3.4-21.3-20.73-35.76-42.21-35.81q-21.75-.06-43.48,0c-25.37,0-44.61,19.07-44.7,44.53-.12,36.65,0,73.29,0,109.94,0,20.32,0,40.65,0,61,0,7.07-.26,7.27-7.23,8.86-11.67,2.66-19.5,9.6-23.37,21C2.44,259.5,2.63,261.76.1,262Z"/><path d="M.1,262c2.67-10.4,7.77-19,17.78-23.92,3-1.48,6.17-3,9.44-2.87,4.59.22,4.85-2,4.84-5.66Q32,161.1,32.08,92.64c0-11.66,0-23.32,0-35,.06-26.19,18.32-45.58,44.58-46.58,15.3-.59,30.66-.55,46-.05,24.18.78,40.75,16.69,43.3,41.07.3,2.92,1.95,3.32,4,4.08,16.18,6.08,27,17.23,31.46,34.06a44.33,44.33,0,0,1,1.31,10.35c.18,8.49.17,17,0,25.48-.13,8-4,12.59-11.6,12.67q-36.48.33-73,0c-7.36-.07-11.21-4.44-11.34-11.8-.15-9-.24-18,0-27,.56-19,13.77-36.38,32.5-43.16,6.44-2.33,6.57-2.6,4.39-9.12a22.39,22.39,0,0,0-20.66-15.44c-15.32-.28-30.66-.37-46,0-14.26.34-23.76,11-23.76,26q0,85.7,0,171.4a19,19,0,0,1,0,2c-.26,2.32.62,3.44,3.07,3.19a34,34,0,0,1,3.5,0q208.12,0,416.26-.08c14.67,0,25.89,5.09,32.61,18.47,1.39,2.77,2.11,5.87,3.13,8.83v9c-.49,7-2.67,13.24-7.69,18.36-2,2.08-1.89,4.87-1.89,7.55,0,17.65.25,35.31-.06,53-.56,32.75-11.68,61.47-33.6,85.95a126.56,126.56,0,0,1-10.93,10.92c-5.11,4.47-5,4.6-2.08,10.5q5.79,11.63,11.6,23.25a24.55,24.55,0,0,1,2.93,9c.42,5.23-1.78,9.22-6.31,11.44a11.32,11.32,0,0,1-13.37-2.08,22.64,22.64,0,0,1-4.46-6.58c-3.72-7.45-7.43-14.9-11.19-22.33-2.57-5.08-3-5.21-8-2.9a151.08,151.08,0,0,1-64.82,14.32q-106.94,0-213.86,0a147.91,147.91,0,0,1-62.4-14c-5.87-2.71-6-2.71-9,3.23q-5.5,10.94-11,21.89a21.09,21.09,0,0,1-4.9,6.86c-3.83,3.3-8.06,3.71-12.57,1.68a10.73,10.73,0,0,1-6.6-10.77,20.76,20.76,0,0,1,2.42-8.59c4.06-8.21,8.07-16.45,12.31-24.57,2.89-5.54,3.07-5.8-1.54-9.62a119,119,0,0,1-23-26.12c-14.06-21.17-21.77-44.48-22.18-70-.29-18-.11-36,0-54,0-3.85-.66-7.2-3.49-10C1.73,282.89.8,277,.1,271Z"/><path class="cls-1" d="M.1,271c2,6.7,4.23,13.27,9.62,18.17,1.58,1.44,1.09,3.39,1.1,5.17.08,18.65-.25,37.32.29,56,1.14,38.95,16.21,71.54,46,96.94,3.44,2.93,3.94,5,1.78,8.91-5.11,9.31-9.76,18.87-14.45,28.41-2.7,5.51-1.92,10.4,1.81,13.69,5.65,5,13.11,3.42,17-3.86,4.75-8.94,9.4-18,13.64-27.15,1.79-3.88,3.13-4.53,7.16-2.49a135.39,135.39,0,0,0,61.46,15q110,.31,219.89,0a139.23,139.23,0,0,0,63.39-15.35c3-1.52,4.34-1.44,5.87,1.81,4.3,9.17,9,18.17,13.53,27.22,2.13,4.22,5.07,7.41,10.24,7.53,8.42.2,13.14-8.05,9.13-16.41q-7.2-15-15-29.82c-1.52-2.87-1.4-4.37,1.16-6.52,32.45-27.21,47.37-62.45,47.45-104.4,0-16.49,0-33,0-49.47,0-1.78-.54-3.75,1-5.18,5.43-4.89,7.72-11.44,9.67-18.17q0,118.46.1,236.91c0,3.42-.67,4.09-4.09,4.09Q256,511.84,4.09,512C.67,512,0,511.33,0,507.91Q.18,389.46.1,271Z"/><path class="cls-1" d="M256.51,298.77q109.2,0,218.41-.11c4.18,0,5.2,1,5.11,5.14-.3,13.32-.1,26.65-.12,40-.09,57.05-35.55,100.55-91.42,112.2a141.31,141.31,0,0,1-28.79,2.68q-103.71.1-207.41,0c-30.22,0-57.91-7.79-81.33-27.68-24.11-20.46-36.89-46.82-38.49-78.25-.87-16.95-.26-34-.44-51,0-2.4.65-3.28,3.07-3.06,2.15.19,4.33,0,6.49,0Z"/><path class="cls-1" d="M256.5,277.26H37.12a51.73,51.73,0,0,1-6-.21c-5.69-.64-9.95-5.42-9.73-10.76.2-5,4.7-9.67,9.94-10.2,1.32-.13,2.66-.07,4-.07H476.11c3.17,0,6.31-.05,9.16,1.77,3.89,2.48,5.76,6,5.09,10.52a10.56,10.56,0,0,1-9,8.79,51.8,51.8,0,0,1-6,.17Z"/><path class="cls-1" d="M154.37,117.32c-7,0-14-.36-20.93.13-4.82.33-5.9-1.47-5.46-5.76a53.37,53.37,0,0,0,0-9.46c-.94-13,11.32-24.68,23.53-27,11.79-2.22,24.63,6,28.6,18.22,2.36,7.26.85,14.84,1.07,22.27.07,2.45-2.14,1.54-3.4,1.55C170,117.36,162.18,117.32,154.37,117.32Z"/></g></g></svg>