<svg xmlns="http://www.w3.org/2000/svg" viewBox="0 0 512 512"><defs><style>.cls-1{fill:#fefefe;}.cls-2{fill:#616161;}.cls-3{fill:#646464;}.cls-4{fill:#fdfdfd;}.cls-5{fill:#5a5a5a;}.cls-6{fill:#afafaf;}.cls-7{fill:#383838;}.cls-8{fill:#5d5d5d;}</style></defs><g id="Layer_2" data-name="Layer 2"><g id="Layer_1-2" data-name="Layer 1"><path class="cls-1" d="M.09,77.07C.09,52.76.17,28.45,0,4.14,0,.81.54,0,4.05,0Q174.12.18,344.2.1,425.62.1,507,0c3.87,0,5,.51,5,4.76q-.24,136.11-.12,272.24c-2.25-.07-2.43-2.05-3-3.47-2.28-5.56-6.34-8.7-12.21-9.9-6.5-1.33-7.2-2.32-7.24-9.14-.06-11.16.13-22.32-.06-33.48-.17-9.9-1.68-19.61-6.17-28.57-7.33-14.6-19.83-22-35.48-24.64a104.22,104.22,0,0,0-17.4-1.31q-116.66.09-233.3.07c-8,0-16,.57-23.66,3.14-14.07,4.73-24.15,13.73-29.41,27.8a10.36,10.36,0,0,1-2.36,4.34c-1.83,1-2.16-.54-2.55-1.67-.51-1.49-.29-3.13-.81-4.63-3.15-21.33-13.94-37.16-33.72-46.29C73.91,135.14,37,150.73,26.29,182a37.08,37.08,0,0,1-2.07,5.62c-.54,1-1.15,2.22-2.6.94-1.36-2.31-.92-4.87-.93-7.33q0-45.93,0-91.87a74.31,74.31,0,0,0-.16-7.47c-.68-2.52-.75-5.23-2.54-7.42-3.9-4.75-10-4.82-14.19-.17C2.74,75.45,2.26,77.41.09,77.07Z"/><path class="cls-1" d="M511.88,434.93c0,24.33-.09,48.65.1,73,0,3.42-.68,4.09-4.1,4.09q-239.65-.17-479.3-.09c-8.49,0-17-.12-25.49.06C.59,512,0,511.41,0,508.91c.11-25,.06-50,.06-75,1.87-.09,2.44,1.52,3.34,2.63C6,439.63,9,441.37,13,440.15s6.16-4.12,6.38-9.09.06-9.65.07-14.48c0-14-.06-28,0-41.95,0-7,1.2-8.07,8.16-8.24,1.5,0,3,0,4.49,0H479.69c12.78,0,12.78,0,12.79,12.65q0,24.72,0,49.44c0,2.49-.1,5,1.1,7.33a8.61,8.61,0,0,0,13.17,2.73C508.39,437.22,509.28,434.85,511.88,434.93Z"/><path d="M511.88,434.93c-1.71,1.75-2.5,4.2-4.67,5.65-7,4.65-15.94.46-16.35-8.16-.48-10.14-.21-20.3-.23-30.46s-.11-20.31.06-30.46c0-2.87-.84-4-3.65-3.55a14.82,14.82,0,0,1-2,0q-229,0-458-.12c-4.93,0-5.92,1.3-5.85,6,.29,19.14.17,38.29.08,57.43,0,5.91-3.45,10-8.79,11.11-4.46.93-8.77-1.43-11.35-6.23-.39-.72-.72-1.48-1.08-2.21V77.07c1.64-1.59,2.32-3.9,4.24-5.33C11.41,66.48,19.87,70.57,21.2,80c.7,1.77.35,3.62.35,5.43q0,40.14,0,80.29c0,10.61-.3,21.23.93,31.81,0,2.55,0,5.11,0,7.67q0,23.78,0,47.54c0,2.09-.54,4.37,1.51,5.95a8.93,8.93,0,0,0,4.38.76c14.27,0,28.55.1,42.82.08a32.68,32.68,0,0,1,12.5-.55,17.27,17.27,0,0,0,6.15.66c13.47-.18,26.94-.19,40.41-.18,2,0,4,.18,5.85-.79,1.92-1.45,1.48-3.55,1.49-5.5,0-12.75,0-25.5,0-38.25,0-2.6.87-5.08,1-7.67.23-2,.57-4,2.31-5.3C146.53,181.5,162.38,168,183.29,166c4.63-.44,9.3-.69,14-.69q118.35-.06,236.69,0c9.37,0,18.59.86,27.3,4.72,17.23,7.63,26.4,21.3,28.59,39.61,1.9,15.9.49,31.93.79,47.9,0,2.06-.26,4,2.8,4.07,10.14.29,16,5.8,18.47,15.4Z"/><path d="M140,206.88c.52,2.57-1.1,4.84-1,7.35a19.19,19.19,0,0,0-1,5.48c-5.27,21.4-28.56,40.74-49.12,40.78-1.52-.15-3.09.36-4.56-.4-4.15-.15-8.32-.38-12.37.86-22.21-2.72-37.07-15.31-46.68-34.87-1.9-3.88-3.43-7.92-3.18-12.39-.64-2.93-.45-5.91-.47-8.88v-6.75c.07-3.12-.41-6.33,1.34-9.2,5.53-27.46,31.74-47.63,59.93-46.12,29.78,1.59,53.66,23.7,56.34,52.13C140,198.84,139.13,202.91,140,206.88Z"/><path class="cls-2" d="M22.94,188.86l-1,9.07c-.23.53-.46.55-.69,0q-.18-43.06-.33-86.14c0-10.61.19-21.22.29-31.83,1,1.71.51,3.58.51,5.37,0,32.69,0,65.39.08,98.09C21.79,185.23,20.73,187.45,22.94,188.86Z"/><path class="cls-3" d="M140,206.88c-1.81-3.9-.7-8-.78-12,1.71,2.07-.23,5,1.74,7Z"/><path class="cls-1" d="M256.26,282.73q114.4,0,228.8-.11c4.64,0,5.74,1.25,5.67,5.75-.27,18-.2,36,0,54,0,3.49-.91,4.45-4.43,4.45q-230.31-.13-460.61,0c-3.59,0-4.42-1.08-4.39-4.5.16-18.15.22-36.3,0-54.45,0-4.19,1.1-5.19,5.21-5.19Q141.35,282.83,256.26,282.73Z"/><path class="cls-1" d="M314.21,261.26q-74.68,0-149.38.09c-3.8,0-5.06-.81-4.9-4.81.6-14.8-.84-29.65.82-44.42s11.47-24,26.33-25.1c2.65-.2,5.32-.24,8-.24h239.3a55.45,55.45,0,0,1,11.43.76c13.89,2.91,22.35,12.09,22.91,26.26.59,14.8.23,29.64.51,44.45.07,3.6-2,3-4.14,3H314.21Z"/><path class="cls-4" d="M22.86,214.3c4.29,22.55,23,40.91,46.55,45.65.89.18,2.06-.28,2.52,1L22,261.06c-.87-15.23-.18-30.47-.35-45.71C21.63,214.56,22.05,214.18,22.86,214.3Z"/><path class="cls-4" d="M89.21,260.14c22.43-3.51,37.55-16.26,46.5-36.8.6-1.37,1-2.81,1.49-4.22,1.58,0,1.3,1.2,1.3,2.1,0,12.76.06,25.51,0,38.27a2.78,2.78,0,0,1-.54,1.35l-48.81.08c-.39-.2-.52-.38-.37-.55A.6.6,0,0,1,89.21,260.14Z"/><path class="cls-5" d="M22.86,214.3a2.53,2.53,0,0,0-1.16,2.55q.15,22.1.29,44.21c-1.31-.38-1.1-1.5-1.1-2.43q.16-26.76.35-53.52.35-.8.69,0Z"/><path class="cls-6" d="M138,260.84q0-18.73,0-37.47c0-1.43.49-3-.79-4.25.24-1.76.37-3.55,1.76-4.89,0,14.59,0,29.17,0,43.76C139,259,139.71,260.41,138,260.84Z"/><path class="cls-7" d="M21.93,205.11l-.35,0-.34,0v-7.18a1.61,1.61,0,0,0,.69,0Z"/><path class="cls-8" d="M89.21,260.14a2,2,0,0,0-.06.78c-1.72.34-3.44.64-4.85-.83Z"/><path class="cls-1" d="M80.53,161.62c22,0,40.64,18.61,40.29,40.37-.36,22-18.41,40-40.22,40S40,223.28,40.29,201.56A40.56,40.56,0,0,1,80.53,161.62Z"/></g></g></svg>