<svg xmlns="http://www.w3.org/2000/svg" viewBox="0 0 500 500"><defs><style>.cls-1{fill:#fefefe;}.cls-2{fill:#040404;}.cls-3{fill:#010101;}.cls-4{fill:#040403;}.cls-5{fill:#060605;}.cls-6{fill:#050505;}.cls-7{fill:#060606;}.cls-8{fill:#050504;}</style></defs><g id="Layer_2" data-name="Layer 2"><g id="Layer_1-2" data-name="Layer 1"><path class="cls-1" d="M.09,249.49Q.09,126.82,0,4.16C0,.84.52,0,4,0q245.85.18,491.7,0C499.56,0,500,1,500,4.44Q499.85,250,500,495.6c0,3.47-.55,4.4-4.28,4.4q-245.61-.18-491.21,0C.59,500,0,498.93,0,495.32Q.17,372.41.09,249.49Z"/><path d="M51.11,218a26.94,26.94,0,0,1-6-6c-.56-2.68,1.75-3.72,3.11-5.24,3.71-4.15,8.22-7.58,11.2-12.42-4.31,3.82-8.31,7.93-12.44,11.9-1.35,1.3-2.41,3.36-4.89,2.76a6.32,6.32,0,0,1-3.11-4.64c-.66-2-.22-4.12-.35-6.18s1.72-2.67,2.85-3.81c6.33-6.44,13.31-12.3,18.05-20.16-5.48,5-10.62,10.3-15.94,15.42-1.28,1.23-2.38,3.4-4.85,2.12-1.7-10,1.14-18,9.43-24.31a47.33,47.33,0,0,0,11.1-11.93c-4.94,4.58-9.7,9.35-14.47,14.1a17.11,17.11,0,0,1-3.38,2.92c-1.75,1-2.82.76-2.79-1.55,0-4.16,0-8.31,0-12.46a6.57,6.57,0,0,1,3-3.85c7-5,11.39-12.42,17.28-18.48-5.08,4.27-9.73,9-14.44,13.64A13.33,13.33,0,0,1,40.6,153c-1.08.48-2,.41-2-1.1V140.32c0-2.44,1.85-3.8,3.36-5.32,4.8-4.84,9.64-9.64,14.44-14.47a11.14,11.14,0,0,0,3.48-5.34c-5.77,5.18-10,10.73-15.07,15.34-1.35,1.22-2.48,2.71-4.19,3.48-1.07.49-2,.42-2-1.09V120.41c.25-3.43,2.95-5.09,5.28-6.88,6.26-4.81,10.35-11.55,15.76-17.12-5.84,5-11.06,10.58-16.64,15.78-1.05,1-2.39,3.76-4.4.77V101.32c.06-2.42,1.84-3.78,3.34-5.29,4.77-4.81,9.59-9.58,14.37-14.39,1.5-1.52,3.18-3,3.48-5.91-5.62,5.37-9.89,11.35-15.35,16.19C43.2,93,42.16,94.35,40.61,95c-1.06.46-2,.41-2-1.09V81.34c.42-3.73,3.56-5.47,5.85-7.74C55.38,62.73,66.29,51.84,77,40.72a5,5,0,0,1,4.2-2.13c3.94.07,7.87,0,11.81,0,1.18,0,2.43,0,2.15,1.76C91.54,45.6,86.74,49.68,82,53.8a71.54,71.54,0,0,0-6.29,5.89c3-.08,4.33-1.83,5.82-3.3,5-4.89,9.83-9.84,14.77-14.73,1.4-1.39,2.7-3,4.93-3h11.55c3.51,1.41.64,3-.18,3.88-3.52,4-7.44,7.6-11.18,11.38a36.9,36.9,0,0,0-4.9,5.59c6.67-6.12,14.06-11.46,19.59-18.78,2.64-2.84,6.12-2,9.36-2.06,2.48-.07,5,0,7.44,0,3.1,1.62.49,3-.41,4a133.67,133.67,0,0,1-12.44,12.18,15.46,15.46,0,0,0-4.24,4.42c2.18.34,3.14-1.32,4.26-2.42,5-4.88,9.88-9.85,14.83-14.77,1.28-1.28,2.48-2.7,4.29-3.32,3.64-.2,7.28-.05,10.92-.08,1,0,2.21-.38,2.75.6.66,1.17-.26,2.22-1,3.07-3.07,3.48-6.5,6.61-9.74,9.93-2.2,2.24-4.48,4.41-6.91,7,2.18-.25,3.24-1.68,4.3-2.88,4.51-5.08,10.22-8.92,14.59-14.14,1-1.13,2.17-2.17,3.84-1,3.35,2.52,4.39,6,4.08,10-5.53,6.59-11.52,12.74-17.62,18.81-1.47,1.46-3.35,2.69-3.93,5.52C146.26,69.71,151.59,64.27,157,59c1.35-1.32,2.44-3.29,4.87-2.86v14c-4.32,7-11.1,11.74-16.48,17.77-1.85,2.06-4.37,3.62-5.11,6.67a90.77,90.77,0,0,0,15.74-15.47c1.46-1.8,2.83-4.24,5.85-4v15c-4.6,6.58-10.75,11.71-16.21,17.49-1.76,1.87-3.91,3.43-4.8,6,5.37-4.93,10.45-10.13,15.68-15.17,1.41-1.37,2.6-3.75,5.33-2.36v13c-4.11,6.8-10.69,11.31-15.85,17.14-2,2.2-4.64,3.83-5.89,7.76a108.38,108.38,0,0,0,14.49-14.27c1.88-2.18,3.16-5.75,7.25-4.65v13c-.63,1.52-.9,3.18-2.15,4.43-6,6-11.91,12.12-18.07,18-1.45,1.37-3.43,3.56-4.82-.27a37.46,37.46,0,0,1-.41-8q0-36,0-72c0-6.21-.35-6.55-6.45-6.56q-30-.06-60,0c-5.92,0-6.33.38-6.34,6.18,0,39.31.08,78.63-.13,117.94,0,5.33,3,8.59,5.62,12.33a2.92,2.92,0,0,1-.51,3.66c-4.45,4-7.65,9.22-12.25,13.1C54.84,218.22,53.27,219.55,51.11,218Z"/><path d="M295.62,461.05c-3.07-.59-4.92-2.78-6.64-5.12a1.77,1.77,0,0,1,.17-1.88c5-6,11-11.05,16.09-16.94.4-.46,1.23-.44,1.9-.56,14.82-.52,29.64-.18,44.45-.22,23.8-.07,47.6,0,71.41,0a39.84,39.84,0,0,1,7.95.36c4.2,1.51,2,4,.49,5.68-3.06,3.46-5.94,7.12-9.58,10.06-3.23,2.6-5.78,5.92-8.81,8.73-2.81.53-5.64.2-8.46.2-1.22,0-2.93.76-3.58-.8-.57-1.38.67-2.49,1.57-3.43,5.37-5.61,10.95-11,16.64-16.75-3.29,1.11-5,3.68-7.12,5.69-2.66,2.53-5.57,4.9-7.72,7.81-4.9,6.67-11.37,8.69-19.2,7.52-1.08-.16-2.57.59-3.15-.74s.58-2.52,1.48-3.45c5.55-5.75,11.24-11.36,16.85-16.9-2.22.44-3.7,2.21-5.29,3.78-4.38,4.33-8.88,8.56-13,13.11-2.95,3.24-6.21,4.76-10.57,4.25-2.14-.25-4.33,0-6.49-.07-1.06-.05-2.54.61-3-.92-.39-1.23.56-2.21,1.36-3,5.39-5.67,11-11.11,17-17.11-2.79,1-4.19,2.74-5.75,4.27-3.09,3-6.69,5.73-9.08,9.25-5.31,7.85-12.83,8.39-21,7.57-.94-.09-2.18.31-2.53-1a2.91,2.91,0,0,1,1.08-2.66c4.16-4.32,8.18-8.77,12.85-12.56a23.46,23.46,0,0,0,4.37-3.71c.24-.24.55-.64.42-.75-.65-.56-1,.23-1.54.42-5,5.34-11.32,9.4-15.55,15.45-3.54,5.06-8.57,5.11-13.8,4.76-2.26-.16-5.63,1.18-6.53-.78-1.11-2.45,2.07-4.16,3.74-5.91,4.37-4.56,9-8.9,13.13-13.68a64,64,0,0,0-14.53,14c-5.81,7.91-13.53,6.48-21.12,6.2-3.16-.12-1.3-2.46-.37-3.47a105.65,105.65,0,0,1,11.75-11.52c2.32-1.42,4.09-3.46,6-5.33a1.33,1.33,0,0,0,.18-.42,1.67,1.67,0,0,0-.43-.14c-6.36,5.34-12.7,10.65-18.13,16.92C301.38,459.7,299.44,462.3,295.62,461.05Z"/><path d="M361.83,306v13a10.18,10.18,0,0,1-4.12,5.94C351,330.1,346,337,340.65,343.5c5.83-5.29,11.54-10.7,16.85-16.5,1.13-1.23,1.94-3.39,4.32-2l.14,12c1.21,1.62.15,2.85-.84,3.91-5.73,6.14-11.92,11.85-17.65,18a2.29,2.29,0,0,1-2.32.47c-4.58-2.75-4.71-7.32-4.72-11.85-.05-25.1,0-50.2,0-75.3,0-2.66.17-5.33-.53-7.92-.78-2.3-2.8-1.83-4.54-2.08-3.88-.57-4.57-1.88-2.05-4.62,5.59-6.07,11.48-11.87,17.49-17.53,2.13-2,4.81-1.86,7.47-1.14a6.24,6.24,0,0,1,4.67,3.27c1.22,1.9-.17,3.12-1.27,4.24-4.62,4.73-8.29,10.36-13.77,14.28-1.78,1.28-2.8,3.24-3.86,5.84,5.12-7.11,12.46-11.14,17.28-17.72,1.61-2.19,3.73-2,4.55,1.17,0,3.35,0,6.69,0,10-.54,2.73-2.32,4.62-4.2,6.53-5.8,5.84-11.85,11.45-17,17.94,5.53-4.82,10.63-10.08,15.9-15.15,1.4-1.36,2.59-3.72,5.3-2.34v13c-1,2.58-3,4.36-4.91,6.2a152.69,152.69,0,0,0-16.59,18.44,252.82,252.82,0,0,0,18.9-18.28c.7-.73,1.59-1.25,2.6-.37v14c-1.91,4.24-5.77,6.78-8.79,10.05-4.14,4.49-8.9,8.41-12.44,13.46,5.62-4.74,10.61-10.12,15.92-15.17C357.93,307,359.1,304.6,361.83,306Z"/><path d="M236,138.17l13,0c1.14,1.44.28,2.68-.75,3.41-6.7,4.76-10.71,12.16-17,17.42,2-.42,3.35-1.8,4.73-3.16,4.57-4.55,9.11-9.14,13.7-13.68,1.28-1.26,2.37-2.81,4.31-3.19a8.89,8.89,0,0,1,7,6.91c.59,2.21-1.1,3.34-2.32,4.58-5,5.12-10.09,10.16-15.17,15.21-2.41,2.4-4.74,4.26-6.35-.72-.19-.6-1.06-.75-1.7-1a38.11,38.11,0,0,0-8-.39q-37.45,0-74.9,0c-5.12,0-10.09-.44-12.91-5.68-.86-2.2.2-3.87,1.64-5.35q8-8.25,16.24-16.22c1.13-1.09,2.36-2.57,4.3-1.27.05,2.16,1,3.15,3.32,3a53.42,53.42,0,0,1,5.79.14c1.25,1.8-.14,2.82-1.26,3.69-6.58,5.12-11.05,12.36-17.65,17.48a35.5,35.5,0,0,0,10-7.58c3.5-3.54,7.22-6.88,10.46-10.65a8.42,8.42,0,0,1,5.44-3h13c.45,2.43-1.52,3.51-2.84,4.85-5.29,5.43-10.71,10.74-15.88,16.3,4.22-2,6.87-5.81,10.15-8.88s6.38-6.24,9.46-9.46a11.88,11.88,0,0,1,5.12-2.82h13a2.76,2.76,0,0,1-1.13,3.06c-6.44,5.71-11,13.27-18.35,18.49,2.9-.3,4.61-2,6.31-3.67q7-7,14-14.05a16.35,16.35,0,0,1,5.13-3.83h13c1.39,2.71-1,3.9-2.33,5.31-5,5.25-10.29,10.28-15.62,15.75,2.25-.16,3.22-1.68,4.37-2.81,4.95-4.87,9.89-9.77,14.74-14.74A12.26,12.26,0,0,1,236,138.17Z"/><path d="M387,338.06h14c.47,2.43-1.52,3.51-2.83,4.86-5.3,5.47-10.79,10.75-15.88,16.44,8.71-6.2,14.85-15.29,23.72-21.31h15c.51,2-.94,3.17-2.15,4.14a122.44,122.44,0,0,0-17.08,17.43c2-.46,3.32-1.94,4.7-3.3,4.81-4.8,9.63-9.59,14.4-14.42a17.08,17.08,0,0,1,5.13-3.85h14c.46,2.45-1.54,3.53-2.86,4.88-5.29,5.43-10.7,10.74-16.54,16.61,3.22-.73,4.58-2.65,6.23-4.28,6.13-6,11.15-13.29,19.18-17.2,3.85-.24,7.77-.9,11,2.13,1.36,2.22-.55,3.37-1.7,4.56-5.85,6-11.87,11.88-17.7,17.93a6.51,6.51,0,0,1-1.65.54c-17.28.65-34.56.17-51.83.29-10.14.07-20.27,0-30.4,0-2.49,0-5,.16-7.35-.9-1.83-1.06-2.16-2.65-.75-4.08,6.93-7.05,13.14-14.85,21.41-20.49h15c-.16,3.88-3.42,5.43-5.85,7.45-5.07,4.22-9.44,9.1-14.43,13.94,3,.15,4.27-1.69,5.74-3.14q7.26-7.15,14.42-14.41A17,17,0,0,1,387,338.06Z"/><path d="M412.94,460.9c.1-2.5,2.21-3.6,3.66-5.1,5.59-5.8,12.16-10.7,16.34-17.79,3-2.43,3.47-5.7,3.46-9.34q-.13-29.39,0-58.77c0-2.61-.48-5.35,1.3-7.68l.32-.3c1.93-.17,3.22-1.36,4.51-2.67,4.25-4.33,8.52-8.65,12.89-12.86,1.31-1.27,2.37-3.32,4.82-2.55,1.75,2.82,2.94,5.75,1.81,9.14-.35,4.38-2.84,7.34-6,10.24A157.79,157.79,0,0,0,440.91,379c4.68-3.74,8.75-8.1,13-12.27a36.33,36.33,0,0,1,3.27-3.06c.93-.7,1.92-1.46,3.17-1,1.44.57.86,1.95,1.06,3,1.67,9.24-1.83,16.11-9.58,21.06-4.4,3.75-7.75,8.41-11.35,12.89,3.73-3.4,7.64-6.59,10.63-10.7a23.68,23.68,0,0,1,6.44-6.18c2.34-1.46,3.62-1.66,4,2,.74,8-1,14.43-7.64,19.7a78.76,78.76,0,0,0-13,13.65c4.77-4.15,9.21-8.61,13.68-13.06a14,14,0,0,1,3.81-3.17c1.7-.78,3-.49,3,1.71.1,7.07.81,13.79-5.92,19.39-8.52,7.1-15.92,15.55-23.76,23.46-4.2,4-8.19,8.18-12.34,12.22C417.6,460.4,415.83,462.29,412.94,460.9Z"/><path class="cls-2" d="M412.94,460.9c2.31.35,3.65-1.15,5.1-2.56,4.27-4.17,8.59-8.29,12.9-12.42a3.34,3.34,0,0,1,.75,3.6,6,6,0,0,1-2.34,2.79,5.06,5.06,0,0,0-3.68,4.22c-.85,1.65-1.83,3.14-4.25,3.55a2,2,0,0,1,.94-.06c8.87,1.1,15.54-2.58,20.76-9.48a6.18,6.18,0,0,1,2.8-2c2-.05,2.94-1.29,3.26-3.14,1.32-2.29,2.66-4.57,5.71-4.79a4.23,4.23,0,0,1,2.37,2.72c-1.24,4.07-4.93,6.12-7.56,9s-5.36,5.39-7.79,7.84c4.12-.61,8.29-1.66,12.34.83-1.87,1.52-4.11,1-6.18,1q-73.4.06-146.77,0c-1.9,0-4,.59-5.68-1a6.27,6.27,0,0,0,5.83-3.18c4.53-6.92,12-10.8,17.17-17.08a4.67,4.67,0,0,1,4.36-1.87c-.72,3.63-4.89,4.66-6,8-4.53,4.3-9.05,8.61-14.68,14,5.74,0,10,.17,14.18-.05,3.13-.17,4.42-3.23,6.38-5.06,4.95-4.63,9.56-9.64,14.27-14.54,1.7-1.78,3.46-3.05,7.17-1.44l-21.76,20.4c10.21,2,17.44.65,23-7.81,3.27-4.94,8.84-8.37,13.37-12.47,1.61,2.75-1.18,4-2,6l-15.65,15c5.78,0,10,0,14.28,0,1.35,0,2-.86,2.82-1.72,5.81-6,11.72-11.83,17.54-17.78,1.72-1.76,3.44-3.16,7-1.87L361.55,459l1.37,1.7c7.18.38,14.28,1.64,19.77-5.76,3.74-5,8.85-9,13.27-13.55,1.72-1.76,3.46-3.13,7-1.83l-21.28,19.57,1.27,1.59c6.72.41,13.26,1.39,18.43-5.45,3.88-5.13,9.09-9.25,13.62-13.9,1.73-1.77,3.49-3.08,6.5-2-6.9,6.82-13.66,13.52-20.41,20.21l.7,1.35Z"/><path d="M262.09,237l.94.92c.8,1.13,2.25.23,3.17,1,.36,2.39-1.53,3.53-2.86,4.89-5.22,5.29-10.45,10.57-16,16-.27.17.78.44.26,0-.15-.12-.08-.28.22-.44,7.45-4,12.1-11.16,18.28-16.6,1.83-1.61,3.18-3.89,5.92-4.24,3.17,0,6.34-.07,9.49,0,1.2,0,2.91-.75,3.48.94.49,1.4-.73,2.45-1.57,3.45-1.08,1.27-2.31,2.4-3.48,3.58-4.09,4.14-8.4,8.09-12.26,12.44a9.34,9.34,0,0,1-7.88,3.38c-4.49-.15-9,.09-13.48-.11-4.51-.75-7.44-3.21-8.35-7.82a6.74,6.74,0,0,1,.32-3.09c3.9-5.32,8.79-9.7,13.73-14a22.83,22.83,0,0,0,4.41-4.59c1.1-1.23,2.24-2.77,4.09-2s.78,2.6,1,4C261.58,235.51,261.33,236.38,262.09,237Z"/><path class="cls-2" d="M266,239c-1.11,0-2.32.19-3-1.11q43,0,86-.06c1.79,0,3.69-.22,5.25,1.07-3.38-.32-5.89,1-8.27,3.48-5.71,6-11.71,11.65-17.82,17.66,3.07,2.08,6.5-.45,8.79,2-1.9,1.78-4.32,1.51-6.6,1.52q-38.82.06-77.65,0c-2.5,0-5.45.65-6.94-2.46,6.23-.61,13.19,1.88,18.55-1,5.13-2.81,8.68-8.49,13-12.84,2.41-2.42,5-4.7,7.45-7l-.6-1.17H271C269.33,240,267.66,240.59,266,239Z"/><path class="cls-2" d="M430.94,449.91v-4c8.72-8.89,17.12-18.12,26.29-26.53,5.22-4.8,3.61-10.32,3.46-15.68-.07-2.79-2.1-.86-3,0-4.87,4.77-9.64,9.64-14.51,14.41-1.14,1.12-2,2.69-3.81,3.07-1.17-2.65.12-4.39,1.87-6.11,4.51-4.43,8.53-9.47,13.52-13.25,6.83-5.18,6.87-11.74,5.78-19.19-3.83,1.46-6.37,4.19-8.61,7.28-3.7-.49-1.92-2.35-1-4,2.78-2.61,5.61-5.18,8.32-7.87,1.44-1.44,2.62-12.45,1.44-13.9-1.69-2.05-2.59.2-3.42,1-5.79,5.71-11.47,11.53-17.28,17.41-2.06-2.87-.66-4.58,1-6.24,5.82-5.72,11.43-11.66,17.54-17.06,2.13-1.88,1.56-4.66,3.47-6.32q0,47.55,0,95.1c0,2.06.6,4.3-.95,6.17-2.13-1.95-1.33-4.55-1.39-6.89-.06-2.13-.34-3.88-2.75-4.44a1.83,1.83,0,0,1-2-2,2.5,2.5,0,0,1,1-3.06c4.67-3.7,3.89-8.65,3.55-14.28-8.1,8.05-15.65,15.7-23.33,23.24C434.74,448.24,433.6,450.45,430.94,449.91Z"/><path class="cls-2" d="M262.09,237a2.55,2.55,0,0,1-1.1-2c-.17-1.18.66-3-.89-3.4s-2.34,1.24-3.1,2.44c-3.17-1.35-1.5-3.17-.33-4.73s3.29-2.7,2.86-5.21c0-4.21,0-8.42.05-12.63-.12-1.64.08-3.29,0-4.93.31-4.18-.5-8.47.58-12.2-6.1,4.44-11.57,10.57-17.4,16.3-2.09,2-2.54,4.55-2.49,7.29.06,3.16,0,6.31.09,9.46.08,1.4,0,2.79,0,4.19.17,4.75,0,9.5,0,14.26A8.73,8.73,0,0,1,239,251c0,1.07-.07,2.15-.11,3.23-2.31-.68-2.35-2.71-2.36-4.46-.12-23.13-.43-46.26.14-69.4a5.26,5.26,0,0,1,.23-.95,4.08,4.08,0,0,1,.83-1.44c4.43.66,1.19,4.73,3.19,6.7,5.34-5.64,11.22-10.91,16.68-16.61,2.32-2.43,1.91-5.43,2.19-8.37.19-2-1.2-4.81,2.16-5.66Z"/><path d="M262,154.05c-1.48,1.31-1.15,3.13-.9,4.65,1,5.87-1.57,9.92-5.8,13.71-5.34,4.78-10.21,10.09-16.26,16.15V178c-1.93-2.44-1.14-4.78.67-6.71q8.66-9.23,17.91-17.89c1.18-1.1,2.57-2.18,4.44-1.39Z"/><path class="cls-2" d="M158,41.11c-4.73,2.21-7.09,7.07-11.27,10-3.08,2.16-5.51,5.25-8.16,8-1.63,1.7-3.38,2.55-6.43,1.31l20.74-20.06-.65-1.26H139.05c-1.68.95-3.35,1.58-5,0-3,0-6,.21-9-.06a10.71,10.71,0,0,0-9,3.06c-1.2-.65-1.17-2.12-2-3h-14c-2,.55-3.28,3.52-6,2l0-1.82c-5.72.57-12-2.59-17,2.82-1.68.56-2.2-1.6-3.67-1.54-3.79-.15-7.57,0-11.34,0a4.13,4.13,0,0,0-3.57,1.27c-4.08,4.72-9.66,7.88-13.27,13.17-1.32,1.94-3,4.63-6.36,3.2a5.7,5.7,0,0,1-.16-2.84c4.36-4.86,9.5-9,13.76-14.13-2.27-1.69-5.13,0-6.72-2.23,1.68-1.55,3.78-1,5.68-1q48.81-.07,97.62,0C152.41,37.93,155.62,38.27,158,41.11Z"/><path class="cls-2" d="M39.08,55.08v3a5.68,5.68,0,0,1,1.38,3.31c.23,4.49.06,9,.06,13.5a8.81,8.81,0,0,1-1.44,5.18v15c1.58,1.67,1,3.34,0,5v14c1.58,1.66,1,3.33,0,5v15c1.58,1.67,1,3.34,0,5v14c1.58,1.67,1,3.34,0,5v13.84L59.82,151c1.3,5.28,1.36,5.34-.85,7.59-4.79,4.86-9.43,9.91-14.54,14.41-4.07,3.6-6.19,7.53-5.4,13a41.1,41.1,0,0,1,0,6c1.54,1.67,1.23,3.34,0,5l-.14,7.36c-1.55-1.86-1-4.11-1-6.18Q37.89,125.09,38,52c0-2.07-.59-4.32,1-6.19C41.37,48.84,41.05,52,39.08,55.08Z"/><path class="cls-3" d="M188.13,354.92a28.36,28.36,0,0,1-6.07-6.06c-1.19-1.39-.33-2.59.58-3.51,5-5,9.55-10.58,15.28-14.9a13.84,13.84,0,0,1,8.63,8.48c-4.39,5.95-10.08,10.64-15.35,15.74C190.37,355.47,189.24,356,188.13,354.92Z"/><path class="cls-3" d="M169,336a38.81,38.81,0,0,1-7-7c-.14-.31-.32-.72-.15-.94,4.91-6.38,10.11-12.47,17.15-16.67a12.14,12.14,0,0,1,7.59,7.5c-2.78,6.29-8.77,9.75-13.08,14.69C172.41,334.86,171.25,336.59,169,336Z"/><path class="cls-3" d="M149.13,315.94a28.59,28.59,0,0,1-6.06-6.07c-1-1.12-.53-2.26.27-3.09,5-5.2,9.7-10.77,15.52-15.16a13.38,13.38,0,0,1,8.7,8.35c-4.41,5.92-10.08,10.64-15.35,15.72C151.38,316.49,150.24,317,149.13,315.94Z"/><path class="cls-3" d="M130,297a39.14,39.14,0,0,1-7-7c-.2-.47-.35-1.07,0-1.41,5.2-5.9,10-12.23,17-16.2a12.14,12.14,0,0,1,7.6,7.49c-2.78,6.3-8.77,9.75-13.08,14.7C133.42,295.87,132.27,297.6,130,297Z"/><path class="cls-3" d="M110.13,277a28.82,28.82,0,0,1-6-6.08c-1-1.13-.52-2.27.29-3.11,5-5.25,9.8-10.8,15.59-15.3a13.72,13.72,0,0,1,8.61,8.53c-4.21,6.12-10.54,10.18-15.37,15.7A2,2,0,0,1,110.13,277Z"/><path class="cls-3" d="M276.08,442.89a29,29,0,0,1-6.05-6.07c-1-1.11-.54-2.21.24-3.07a152.24,152.24,0,0,1,13.89-13.82,3.61,3.61,0,0,1,2.77-.78,12.51,12.51,0,0,1,7.59,7.73c-4.38,6-10.09,10.66-15.36,15.76A2.08,2.08,0,0,1,276.08,442.89Z"/><path class="cls-3" d="M61.17,228a29.25,29.25,0,0,1-6.07-6,2,2,0,0,1,.28-3.1c5.62-4.67,9.56-11,15.53-15.32,4.35,1.35,6.94,4.45,8.53,8.56C75.06,218.16,69.29,222.9,63.87,228A1.85,1.85,0,0,1,61.17,228Z"/><path class="cls-3" d="M257,423.93a37.61,37.61,0,0,1-7-7c-.15-.31-.33-.72-.16-.94,4.91-6.39,10.11-12.49,17.17-16.67a11.78,11.78,0,0,1,7.53,7.52c-4,6.34-9.51,11.25-14.84,16.35A2.39,2.39,0,0,1,257,423.93Z"/><path class="cls-3" d="M208,375a37.56,37.56,0,0,1-7-7c-.54-1.3.22-2.25,1-3.06,5-5.16,9.85-10.48,15.92-14.46,3.84,1.15,6.2,3.81,7.65,7.41-2.48,6.11-8.29,9.31-12.39,14C211.89,373.35,210.67,375.53,208,375Z"/><path class="cls-3" d="M91.07,258a37.32,37.32,0,0,1-7-7c-.15-.31-.33-.72-.16-.94,4.91-6.39,10.11-12.48,17.16-16.67a11.77,11.77,0,0,1,7.54,7.52,97.88,97.88,0,0,1-14.83,16.34A2.38,2.38,0,0,1,91.07,258Z"/><path class="cls-3" d="M227.11,393.91a28.77,28.77,0,0,1-6.08-6,2,2,0,0,1,.3-3.09c5.94-4.36,9.47-11.13,15.52-15.34,4.35,1.34,6.94,4.45,8.53,8.55-4.38,6.09-10.15,10.84-15.57,15.91A1.85,1.85,0,0,1,227.11,393.91Z"/><path class="cls-3" d="M237.05,403.92a28.59,28.59,0,0,1-6-6.07c-1-1.14-.53-2.28.28-3.12,5-5.26,9.81-10.8,15.6-15.31a13.71,13.71,0,0,1,8.61,8.54c-1.11,2.93-3.78,4.49-5.95,6.39-2.84,2.49-5.79,4.81-8.1,7.86C240.46,403.56,239.29,405.34,237.05,403.92Z"/><path class="cls-3" d="M71.11,238a27.9,27.9,0,0,1-6-6.07c-1-1.13-.54-2.27.26-3.1,5-5.2,9.7-10.79,15.54-15.17a13.29,13.29,0,0,1,8.69,8.4c-1,2.8-3.55,4.25-5.66,6a53.75,53.75,0,0,0-8.08,7.88C74.7,237.33,73.63,239.47,71.11,238Z"/><path class="cls-3" d="M81,248a27.49,27.49,0,0,1-6-6c-1.46-2.44.28-4.1,1.62-5.65,4.2-4.85,9.25-8.8,14.2-12.85,4,1,6.25,3.78,7.76,7.37-2.45,6.14-8.28,9.32-12.38,14C85,246.4,83.72,248.58,81,248Z"/><path class="cls-3" d="M217,383.94a27.32,27.32,0,0,1-6-6c-.14-.31-.32-.72-.15-.94,4.92-6.38,10.1-12.51,17.19-16.67a11.48,11.48,0,0,1,7.49,7.67c-4.33,5.22-8.54,10.55-13.61,15.1C220.51,384.4,218.94,385.37,217,383.94Z"/><path class="cls-3" d="M247,413.94a27.4,27.4,0,0,1-6-6c-1.47-2.45.27-4.11,1.61-5.65,4.21-4.84,9.4-8.64,14.2-12.85,3.95,1,6.26,3.77,7.76,7.37-2.45,6.14-8.28,9.32-12.38,14C250.89,412.33,249.66,414.51,247,413.94Z"/><path class="cls-3" d="M100.15,267a28.13,28.13,0,0,1-6.07-6c-.2-.47-.33-1.07,0-1.41,5.25-5.74,9.89-12.07,16-17.06a14,14,0,0,1,8.57,8.5c-4.4,5.93-10.08,10.64-15.35,15.73C102.4,267.51,101.27,268,100.15,267Z"/><path class="cls-3" d="M266.08,432.89a28.31,28.31,0,0,1-6.06-6,1.42,1.42,0,0,1,0-1.41c5.15-5.84,10.16-11.82,16-17.06a14,14,0,0,1,8.57,8.5c-4.4,5.93-10.08,10.64-15.36,15.73A2.07,2.07,0,0,1,266.08,432.89Z"/><path class="cls-3" d="M198.05,364.94a27.59,27.59,0,0,1-6-6.06c-1.17-1.4-.34-2.6.58-3.52,5-5,9.56-10.58,15.27-14.92a14,14,0,0,1,8.65,8.43C210.74,354.64,205.65,361.24,198.05,364.94Z"/><path class="cls-3" d="M178.09,344.94a27.9,27.9,0,0,1-6.07-6c-.14-.32-.31-.73-.15-.94,4.93-6.38,10.1-12.51,17.18-16.66a11.58,11.58,0,0,1,7.5,7.63,152.49,152.49,0,0,1-12.89,14.11C182.32,344.45,180.61,346.43,178.09,344.94Z"/><path class="cls-3" d="M139.12,306a28.26,28.26,0,0,1-6.07-6,2,2,0,0,1,.43-2.27c5.08-5.49,10.33-10.81,15.5-16.22a13.94,13.94,0,0,1,8.59,8.49c-4.41,5.94-10.09,10.65-15.36,15.74A2.1,2.1,0,0,1,139.12,306Z"/><path class="cls-3" d="M120,287a27.32,27.32,0,0,1-6-6c-1.49-2.35.55-3.71,1.66-5.09,4.11-5.08,9.3-9.07,14.16-13.39,3.94,1,6.24,3.78,7.75,7.37-2.45,6.14-8.28,9.31-12.37,14C123.94,285.38,122.71,287.55,120,287Z"/><path class="cls-3" d="M286,452.92a27.41,27.41,0,0,1-6-6.05c-1.47-2.62.85-3.89,2.08-5.37,4.05-4.9,8.91-9,13.74-13.09,3.93,1,6.23,3.78,7.74,7.37-2.27,5.83-7.75,8.89-11.67,13.29C290.36,450.79,289.06,453.37,286,452.92Z"/><path class="cls-3" d="M159,326a27.5,27.5,0,0,1-6-6.06c-1.16-1.39-.35-2.6.57-3.52,5-5,9.57-10.59,15.29-14.93,4.29,1.39,6.9,4.45,8.47,8.54-5.4,5.14-10.53,10.56-16.07,15.55A2.05,2.05,0,0,1,159,326Z"/><path d="M456.93,442.92c2.64-2.05,4.3-2.37,4,1.94-.18,3.12,0,6.26.1,9.39a8.94,8.94,0,0,1-6.82,6.81H439.69Z"/><path d="M39.08,55.08q-.07-4.65-.14-9.31a8.81,8.81,0,0,1,6.79-6.83c2.88.6,7.51-1.19,8.34,1,1.11,2.89-3.21,4.81-5.35,6.86C45.67,49.7,43.54,53.79,39.08,55.08Z"/><path class="cls-2" d="M262,152c-8.82,5.62-15,14-22.39,21.16-1.26,1.22-.49,3.2-.63,4.83h-.95c-2.51-5-2.34-9.95-.15-15,1.92.83.33,3.16,2.1,4.51,6.94-7.32,14.58-13.92,21.07-21.68A8.21,8.21,0,0,1,262,152Z"/><path class="cls-2" d="M216,138.17c-6.75,6.87-13.47,13.78-20.28,20.59-1.82,1.83-4.09,2.79-7.66,1.79,8.44-6.82,14.68-15.08,21.93-22.38Z"/><path class="cls-4" d="M387,338.06c-7,7.09-13.95,14.16-20.86,21.29-1.9,2-4,1.68-6.8,1.37,6.79-8.8,15.65-14.81,22.65-22.65Z"/><path class="cls-2" d="M178,138.17c-4.93,3.18-8.18,8.12-12.52,11.92-3.48,3.06-6.94,6.17-10.33,9.34-1.61,1.52-3.27,2.08-4.62,1.52,6-6.47,12-13.17,18.28-19.72.91-.95,2.15-1.52,2.2-3Z"/><path class="cls-2" d="M161.91,115.06c-3.3.86-4.87,3.69-6.91,6-4.64,5.3-9.21,10.7-15.46,14.52a4.72,4.72,0,0,1,1.13-5.69q10.65-10.38,21.24-20.83Z"/><path class="cls-2" d="M361.83,286c-3.58,2.18-5.91,5.68-8.82,8.55-4.34,4.26-8.37,8.86-12.93,13.74-1.55-2.93-1.2-4.54.24-6.16,6.86-7.67,13.72-15.35,21.51-22.12Z"/><path class="cls-2" d="M161.91,75.09c-5.53,4-8.78,10.28-14,14.62-2.75,2.28-5.47,4.6-8.35,7-.95-2.53-.47-4.25,1.12-5.81q10.63-10.38,21.23-20.83Z"/><path class="cls-2" d="M361.82,325c-2.91.11-3.26,3-4.82,4.57-5.74,5.65-11.26,11.51-17.16,17.61-1.61-3.51-.34-5.23,1.37-7,5.9-6,10.72-13,17.77-17.83,1.17-.8,1.91-2.23,2.85-3.37C361.83,321,361.82,323,361.82,325Z"/><path class="cls-2" d="M254,139c-6.08,7.25-13.17,13.5-19.8,20.21a7.35,7.35,0,0,1-2.58,1.45c-1.06.42-2.42.88-3.06-.43-.56-1.15.75-1.57,1.47-2.21,6.82-6.12,12.81-13,18.95-19.82C250.73,138.08,252.54,137.5,254,139Z"/><path class="cls-2" d="M425.93,338.06c-11.87,14.28-21.81,22.81-26.28,22.49,5.8-8.77,14.29-14.92,21.28-22.49Z"/><path class="cls-2" d="M445.93,338.08c-9.16,7.33-16.1,17.32-26,23.81l-1.51-1.66q10.74-11.07,21.47-22.16Z"/><path class="cls-2" d="M161.92,135.06c-3.12.48-4.54,3.2-6.44,5.14-5.21,5.29-10.93,10.11-15.51,16-2.33-.65-3.09-2-1.75-4.17,8.15-7.74,16.3-15.47,23.69-24Q161.91,131.57,161.92,135.06Z"/><path class="cls-2" d="M161.91,56.1,141.18,78.75l-1.82-1.49c-.54-1.66-.68-3.4.82-4.73,7.65-6.78,13.47-15.43,21.87-21.44C162,52.76,162,54.43,161.91,56.1Z"/><path class="cls-2" d="M161.91,96.07c-3.28.6-4.77,3.49-6.83,5.54-5,5-9.83,10.27-15.07,15.79-1.48-3.15-1-4.88.59-6.38,7.24-6.84,13.65-14.53,21.31-20.93Z"/><path class="cls-2" d="M236,138.17c-7.43,6.13-13.74,13.39-20.64,20.06-1.83,1.77-3.51,3.6-7.25,2.22,5.9-5.9,11.58-11.52,17.17-17.22,1.46-1.49,3.56-2.59,3.73-5.06Z"/><path class="cls-2" d="M361.83,267c-3.52.83-5.19,3.95-7.49,6.21-4.82,4.74-9.37,9.73-14.4,15-1.82-3.69-.25-5.41,1.49-7.21,6.77-7,14.18-13.43,20.39-21Q361.82,263.5,361.83,267Z"/><path class="cls-2" d="M197,138.16c-7.41,6.13-13.73,13.4-20.63,20.06-1.82,1.77-3.5,3.61-7.06,2.31L191,138.17Z"/><path class="cls-2" d="M361.83,306c-3.53.84-5.21,4-7.52,6.24-4.83,4.74-9.4,9.74-14.41,15-1.45-3-.95-4.74.6-6.26L361.82,300C361.83,302,361.83,304,361.83,306Z"/><path class="cls-2" d="M405.94,338.06c-7.72,10.55-22.17,22.88-26.62,22.29l21.61-22.28Z"/><path class="cls-2" d="M361.84,250c-1.66-2.62-3.38-1.64-4.54.26-4.47,7.35-13,10.7-17.63,18-1.23-4.34,1.29-6.88,4.23-9.23a73.12,73.12,0,0,0,15-16.86A8.7,8.7,0,0,1,361.84,250Z"/><path class="cls-2" d="M367,338.06l-22,22.71c-1.51.84-1.86-.21-2.17-1.33.05-2.23,1.66-3.47,3-4.86,4.41-4.41,8.83-8.8,13.22-13.23,1.24-1.25,2.89-2.28,2.9-4.37C363.38,338.45,365.33,337.5,367,338.06Z"/><path class="cls-2" d="M460.22,343.84c-6.69,5.16-12,11.75-18.14,17.47-1.23,1.14-2.31,3.16-4.08.61.08-2.71,2.49-3.74,3.94-5.45,4.79-5.61,11.24-9.68,15-16.26A5.53,5.53,0,0,1,460.22,343.84Z"/><path class="cls-2" d="M42.05,209l18.39-17.56c1.42,2.85.12,4.56-1.57,6.28-4.64,4.72-9.21,9.52-13.8,14.28A7.28,7.28,0,0,1,42.05,209Z"/><path class="cls-5" d="M266.08,432.89c3.87-.91,5.53-4.5,8.22-6.84,3.35-2.91,6.48-6.09,9.7-9.15,2.21-.2,3.2.82,3,3a56.19,56.19,0,0,0-17,16.91A11.69,11.69,0,0,1,266.08,432.89Z"/><path class="cls-6" d="M189,322a170.11,170.11,0,0,0-17,17,7.4,7.4,0,0,1-3-3,169.15,169.15,0,0,0,17-17C188.28,318.72,189.26,319.72,189,322Z"/><path class="cls-6" d="M120,287a169.81,169.81,0,0,0,17-16.94c2.28-.3,3.26.69,3,3a170.11,170.11,0,0,0-17,17A7.22,7.22,0,0,1,120,287Z"/><path class="cls-6" d="M81,248a169.15,169.15,0,0,0,17-17c2.27-.29,3.26.69,3,3a170.1,170.1,0,0,0-17,17A7.3,7.3,0,0,1,81,248Z"/><path class="cls-6" d="M228,361a170.11,170.11,0,0,0-17,17,7.24,7.24,0,0,1-3-3A168,168,0,0,0,225,358C227.27,357.71,228.25,358.7,228,361Z"/><path class="cls-6" d="M247,413.94A168,168,0,0,0,264,397q3.4-.45,3,3a168.11,168.11,0,0,0-17,17A7.21,7.21,0,0,1,247,413.94Z"/><path class="cls-5" d="M247,379.94c-4.35,4.5-8.71,9-13,13.53-1.23,1.28-2.95,2.26-3,4.38a11.66,11.66,0,0,1-3.93-3.94c3.84-.9,5.48-4.48,8.15-6.78,3.34-2.88,6-6.51,9.74-9C246.69,377.59,247.16,378.42,247,379.94Z"/><path class="cls-6" d="M169.05,302q-6.54,6.76-13.05,13.54c-1.22,1.29-2.94,2.28-2.94,4.39a11.57,11.57,0,0,1-3.93-4c3.86-.91,5.52-4.5,8.21-6.83,3.35-2.92,6.47-6.09,9.7-9.15C168.63,299.71,169.31,300.37,169.05,302Z"/><path class="cls-5" d="M100.15,267c3.87-.92,5.53-4.5,8.21-6.84,3.35-2.91,6.47-6.08,9.7-9.14,1.59-.26,2.26.42,2,2-4.35,4.51-8.71,9-13,13.53-1.22,1.28-2.94,2.26-3,4.37A11.72,11.72,0,0,1,100.15,267Z"/><path class="cls-6" d="M208,341c-4.35,4.51-8.72,9-13,13.54-1.22,1.28-2.94,2.26-2.95,4.38a11.78,11.78,0,0,1-3.92-4c3.86-.92,5.52-4.5,8.2-6.84,3.35-2.91,6.48-6.09,9.7-9.15C207.62,338.69,208.3,339.36,208,341Z"/><path class="cls-7" d="M80.85,214c-3.66,5.09-8.62,9-12.83,13.54-1.2,1.29-2.92,2.25-2.92,4.35A11.49,11.49,0,0,1,61.17,228c3.84-.9,5.48-4.48,8.15-6.78,3.34-2.88,6-6.5,9.73-9Q81.54,211.54,80.85,214Z"/><path class="cls-5" d="M139.12,306c3.87-.91,5.53-4.5,8.22-6.83,3.35-2.92,6.48-6.09,9.7-9.15,1.52-.15,2.34.33,1.78,2-3.66,5.1-8.61,9-12.82,13.54-1.19,1.29-2.92,2.25-2.93,4.34A11.66,11.66,0,0,1,139.12,306Z"/><path class="cls-6" d="M286,452.92a170,170,0,0,0,17-17c1.66-.45,2.17.43,2.18,1.89-1.93,4.48-6,7.07-9.15,10.53-2.29,2.56-4.68,5-7,7.55A7.2,7.2,0,0,1,286,452.92Z"/><path class="cls-6" d="M257,390c-3.23,4.84-8.46,7.6-12.32,11.79-1.69,1.82-3.39,3.56-3.65,6.19a12.14,12.14,0,0,1-4-4,3.35,3.35,0,0,0,3-1.58c3.72-6.14,10.17-9.41,15-14.39C256.61,387.67,257.3,388.31,257,390Z"/><path class="cls-6" d="M159,326c4-3.86,8.13-7.64,12-11.61a17.46,17.46,0,0,1,5.94-4.14c1.71-.58,2.19.2,2,1.77a170.11,170.11,0,0,0-17,17A7.29,7.29,0,0,1,159,326Z"/><path class="cls-6" d="M110,243,94.08,261a6.94,6.94,0,0,1-3-3,80.5,80.5,0,0,0,12.38-12.58A38.06,38.06,0,0,1,108,241C109.68,240.71,110.33,241.38,110,243Z"/><path class="cls-6" d="M276,408.94c-4.43,6.77-10.86,11.76-16,17.94a7,7,0,0,1-3-2.95c6.42-4.9,11.16-11.47,17-17C275.63,406.63,276.27,407.31,276,408.94Z"/><path class="cls-6" d="M130,263c-4,6-10.88,9.2-14.82,15.28a5.33,5.33,0,0,0-1.16,2.68,11.72,11.72,0,0,1-3.93-4c5.15-1.74,7-7.23,11.31-10,2.47-1.58,4.42-4,6.61-6C129.65,260.72,130.33,261.38,130,263Z"/><path class="cls-8" d="M198.05,364.94c6.19-5.08,11.18-11.53,17.95-15.95,1.64-.31,2.32.33,2,2-5.49,5.82-12.06,10.57-16.95,17A7,7,0,0,1,198.05,364.94Z"/><path class="cls-6" d="M91,224c-3.24,4.83-8.6,7.45-12.34,11.79-1.62,1.87-3.37,3.57-3.64,6.19a11.93,11.93,0,0,1-4-4,3.34,3.34,0,0,0,3-1.58c3.73-6.12,10.05-9.53,15-14.38C90.68,221.74,91.35,222.39,91,224Z"/><path class="cls-6" d="M149,282c-4.06,7.11-11.11,11.55-15.95,18a7.17,7.17,0,0,1-3-3A169,169,0,0,0,147,280C148.68,279.69,149.32,280.36,149,282Z"/><path class="cls-6" d="M296,428.92c-3.9,5.63-10.17,9-14.12,14.56-.76,1.08-1.89,1.89-1.86,3.39a11.6,11.6,0,0,1-3.93-4c3.86-.91,5.52-4.5,8.21-6.83,3.35-2.92,6.48-6.09,9.7-9.15C295.59,426.65,296.27,427.31,296,428.92Z"/><path class="cls-6" d="M217,383.94c5.17-.31,7.27-4.82,10.09-8a81.64,81.64,0,0,1,7.88-8c1.64-.32,2.28.37,2,2-4.71,4.6-7.91,10.64-13.67,14.27a4.27,4.27,0,0,0-2.3,3.65A12.21,12.21,0,0,1,217,383.94Z"/><path class="cls-6" d="M178.09,344.94a14.73,14.73,0,0,0,8.26-6C189,335,192.54,332,196,329c1.62-.28,2.27.4,2,2-4.34,4.51-8.7,9-13,13.53-1.22,1.28-2.94,2.26-2.95,4.37A11.63,11.63,0,0,1,178.09,344.94Z"/><path class="cls-6" d="M71.06,204c-4.39,4.45-7.88,9.74-13,13.55-1.4,1.05-3,2.24-3,4.36a12.18,12.18,0,0,1-4-3.93c5.16-.31,7.26-4.82,10.07-7.95a80.44,80.44,0,0,1,7.88-8C70.69,201.73,71.34,202.41,71.06,204Z"/><path class="cls-1" d="M71.06,204a3.41,3.41,0,0,0-2-2c-6.71-4.85-7.09-11.66-7-19.28.3-38.47.2-76.94,0-115.41,0-4.11,1-5.32,5.19-5.27q33,.31,66,0c4.14,0,4.89,1.24,4.87,5-.16,26.48-.1,53-.08,79.44,0,1.83.13,3.66.21,5.48a5.73,5.73,0,0,0,1.75,4.17c2.29,4.56,6.18,6,11,5.95q40.62-.12,81.23,0c1.91,0,4-.71,5.68,1l.15,15q-.09,36.24-.15,72.48c0,1.3,0,2.68,1,3.73a9.12,9.12,0,0,0,6.85,6.87c1.91,1.41,4.14,1,6.27,1q42.45,0,84.92-.06c1.55,1.5.94,3.42.94,5.18q0,41,0,82.05c0,4.28,1.22,7.75,4.92,10.13.6.65,1.14,1.39,2.17,1.33,2,1.53,4.4,1.24,6.7,1.24l79.56,0c2.15,0,4.3.15,6.45.23.05,23.91,0,47.83.24,71.74.05,4.31-2.46,3.78-5,4.05q-45.18-.12-90.35-.22c-12.48,0-25,0-37.44.06L303,436a39.42,39.42,0,0,0-7-7,3.48,3.48,0,0,0-2-2,38.12,38.12,0,0,0-7-7,7.44,7.44,0,0,0-3-3,48,48,0,0,0-8-8,3.37,3.37,0,0,0-2-2,38.93,38.93,0,0,0-7-7,6.85,6.85,0,0,0-3-3,39.87,39.87,0,0,0-7-7,3.45,3.45,0,0,0-2-2,47.19,47.19,0,0,0-8-8c-.43-.87-.89-1.72-2-1.78a41.22,41.22,0,0,0-8-8.21,3.4,3.4,0,0,0-2-2,39.53,39.53,0,0,0-7-7,6.65,6.65,0,0,0-3-3,39,39,0,0,0-7-7,3.32,3.32,0,0,0-2-2,47.25,47.25,0,0,0-8-8l-2-2a48.26,48.26,0,0,0-8-8l-2-2a39.09,39.09,0,0,0-7-7,6.8,6.8,0,0,0-3-3,38.67,38.67,0,0,0-7-7c-.39-.89-.88-1.66-2-1.77a44.43,44.43,0,0,0-8-8.24l-2-2a41.39,41.39,0,0,0-8.22-8c-.06-1.14-.91-1.59-1.78-2a48.11,48.11,0,0,0-8-8,3.28,3.28,0,0,0-2-2,38.35,38.35,0,0,0-7-7,6.6,6.6,0,0,0-3-3,38.5,38.5,0,0,0-7-7.05l-2-2a48.26,48.26,0,0,0-8-8l-2-2a48.44,48.44,0,0,0-8-8,3.34,3.34,0,0,0-2-2,39.64,39.64,0,0,0-7-7,6.77,6.77,0,0,0-3-3,40.21,40.21,0,0,0-7-7,3.4,3.4,0,0,0-2-2,40.9,40.9,0,0,0-8.2-8,1.85,1.85,0,0,0-1.8-1.8A41.17,41.17,0,0,0,71.06,204Z"/><path class="cls-2" d="M39.08,80.08v-5A22.79,22.79,0,0,1,43,70Q56.52,56.54,70,43a22.79,22.79,0,0,1,5.08-3.89l2,3C64.71,55.06,52.49,68.16,39.08,80.08Z"/><path class="cls-4" d="M39.08,197v-5l21.41-20.6c1.93,4.35-1.5,6.16-3.37,8.32C51.67,186.06,46.39,192.62,39.08,197Z"/><path class="cls-2" d="M39.08,158.05v-5c5.94-5.77,11.85-11.57,17.84-17.29,1-.95,2-3.11,3.47-2s.49,3.06-.81,4.26C52.59,144.52,47.49,153,39.08,158.05Z"/><path class="cls-4" d="M39.08,119.07v-5q9.8-10.94,19.58-21.86l2.07,1.71A4.4,4.4,0,0,1,59.65,99C52.83,105.71,47.16,113.61,39.08,119.07Z"/><path class="cls-2" d="M39.08,100.07v-5a108.49,108.49,0,0,0,14.33-14.5c1.92-2.4,3.75-5.11,7.17-5.88.86,2,.66,3.72-.81,5.16Q49.45,90,39.08,100.07Z"/><path class="cls-2" d="M134,39.1h5c-7.89,7.78-14.41,17.16-25,21.86C119.46,52.43,128.1,47,134,39.1Z"/><path class="cls-2" d="M94.05,41.09c2.22,0,3.58-2.61,6-2Q90,49.44,79.85,59.76c-1.73,1.76-3.82,1.53-6.85.78C80.3,53.8,87.18,47.45,94.05,41.09Z"/><path class="cls-2" d="M39.08,139.06v-5a130.32,130.32,0,0,0,15.38-15.52c1.62-2,3.94-3.37,6.08-5.14.86,2.33.68,4-.8,5.47Z"/><path class="cls-2" d="M114,39.1c2,.08,2,1.54,2,3A77.31,77.31,0,0,1,94.71,61.73l-1.17-1.32Z"/><path class="cls-2" d="M357,445.92q1-3,2-6c1.17-1.4,2.62-1.09,4.49-.65A23,23,0,0,1,357,445.92Z"/><path class="cls-2" d="M317,446.92c.06-4.12,4-5.34,6-8,1.36.1,1.81.68.73,1.73C321.5,442.78,319.23,444.83,317,446.92Z"/><path class="cls-2" d="M450.93,385.94c0,1.42-1.41,3.19,1,4L440,402.5l-1.36-1C440.5,394.72,446.64,391,450.93,385.94Z"/><path d="M430.94,449.91l27.59-29.79,2,1.71c1.39,7.25.91,14-5.6,19.09a15.41,15.41,0,0,0-5,5c-.93,1.06-1.2,2.79-3,3-2.06,1.9-4.55,3.49-6.09,5.74-4.83,7-11.69,6.9-19,6,0-2.26,2.59-2.83,3.12-4.71a8.66,8.66,0,0,1,4-4A3.46,3.46,0,0,1,430.94,449.91Z"/><path class="cls-2" d="M428.94,451.91a10.26,10.26,0,0,1-4,4Q424.64,451.61,428.94,451.91Z"/><path class="cls-2" d="M446.93,448.91a6.27,6.27,0,0,1,3-3C449.72,447.71,450.32,450.3,446.93,448.91Z"/><path class="cls-2" d="M266,239h5c-7.56,7.46-13.75,16.53-23.35,21.59l-1.16-1.27Z"/><path class="cls-2" d="M261,225c.46,2.27-1.45,3-2.66,4.26s-3.62,2.41-1.33,4.74l-18,17v-5c5.54-7.84,13-13.88,19.72-20.57A1.88,1.88,0,0,1,261,225Z"/><path d="M269.22,260.49c6.85-6.92,13.3-13.35,19.64-19.88,2.23-2.31,4.95-1.46,7.52-1.58s5,0,7.51,0c.61,2.08-1.18,2.66-2.08,3.6-3.57,3.73-7.79,7-10.81,11.07C285.47,261.23,278.21,262.1,269.22,260.49Z"/><path d="M343.47,239.78c-6.72,6.77-13,13.86-20.09,19.94-3.93,3.35-9.57.57-14.45,1.4-.21-2.35,1.63-2.53,2.62-3.48,2.75-2.61,5.87-5,8-8.06C325.26,241.14,332.34,236.4,343.47,239.78Z"/><path d="M324.6,241.19c-7,6.34-13.9,12.73-21,19-2.06,1.82-4.78.61-7.19.8-2.14.17-4.3,0-7,0,1.71-3.55,4.68-5.44,6.94-7.9s4.43-4.47,6.66-6.7c8.13-8.13,8.13-8.13,19.91-7.1Z"/><path d="M239,227c-1.86-10.41,1.69-18.41,10.12-24.81,3.86-2.93,7.09-6.72,11.86-9.84V206c-4,6.16-9.41,11-15,15.53C243.74,223.4,242.9,227.27,239,227Z"/><path d="M239.4,207.24c-.27-1.6-.33-1.92-.39-2.25-1.31-7.94,1-14.14,7.58-19.3,4.88-3.81,8.72-9,13.52-13.16,1.13,7.14,2.05,13.57-4.66,18.81C249.79,195.76,245.14,201.46,239.4,207.24Z"/><path d="M261,225q-8.94,8.7-17.89,17.38c-1.31,1.26-2.73,2.41-4.09,3.61V231c5.76-6.16,11.86-12,17.84-17.95,1.1-1.09,2.11-2.69,4.14-2Z"/><path class="cls-2" d="M261,211c-5.75,5.58-11.49,11.19-17.27,16.74-1.38,1.33-2.43,3.2-4.71,3.24v-4l22-21Z"/><path d="M75.05,39.1q-17.36,18.61-36,36v-14a207.52,207.52,0,0,1,22-22Z"/><path class="cls-4" d="M61.07,39.1a285.15,285.15,0,0,1-22,22v-3c2.68-.17,4.28-2.24,5.38-4.06,3.52-5.87,10.1-8.6,13.86-14.15C59,38.94,60.09,39.14,61.07,39.1Z"/></g></g></svg>